# xmcd
# 
# Track frame offsets:
#     150
#     18405
#     28971
#     50201
#     70087
#     85696
#     107873
# 
# Disc length: 1679
# 
# Revision: 0
# Processed by: cddbd v1.5.2PL0 Copyright (c) Steve Scherf et al.
# Submitted via: BonkEnc v1.0.8
# 
DISCID=5b068d07
DTITLE=Redwater Rojo - The Wait
DYEAR=2009
DGENRE=
TTITLE0=Flip The Switch (Unedited)
TTITLE1=See Me
TTITLE2=Baby Be
TTITLE3=The Wait
TTITLE4=Lit 'n' Hollerin'
TTITLE5=Boots On
TTITLE6=Flip The Switch (Radio Edit)
EXTD=
EXTT0=
EXTT1=
EXTT2=
EXTT3=
EXTT4=
EXTT5=
EXTT6=
PLAYORDER=
